<svg width="50" height="50" viewBox="0 0 50 50" fill="none" xmlns="http://www.w3.org/2000/svg">
    <g id="logo">
        <path d="M48 23.79C48 29.2269 46.1148 34.4955 42.6657 38.6983C39.2166 42.901 34.417 45.7778 29.0846 46.8385C23.7522 47.8992 18.2171 47.0781 13.4222 44.5152C8.62731 41.9523 4.86942 37.8061 2.78883 32.7831C0.708239 27.7601 0.433668 22.1711 2.0119 16.9684C3.59013 11.7656 6.92352 7.27106 11.4441 4.2505C15.9647 1.22995 21.3927 -0.129706 26.8034 0.403198C32.2141 0.936101 37.2726 3.3286 41.117 7.17303L38.5485 9.74152C35.2983 6.49133 31.0217 4.46864 26.4474 4.01811C21.873 3.56757 17.284 4.71707 13.4622 7.27073C9.64032 9.8244 6.82218 13.6242 5.48789 18.0228C4.15361 22.4213 4.38574 27.1465 6.14473 31.393C7.90373 35.6396 11.0808 39.1449 15.1345 41.3117C19.1882 43.4785 23.8678 44.1726 28.376 43.2759C32.8841 42.3792 36.9419 39.947 39.8579 36.3939C42.7738 32.8408 44.3676 28.3865 44.3676 23.79H48Z" fill="white"/>
        <path d="M16.0159 39.0958C12.4748 37.1329 9.72382 34.003 8.23174 30.2392C6.73967 26.4755 6.59878 22.3108 7.83309 18.4548C9.0674 14.5988 11.6005 11.2901 15.0009 9.09244C18.4012 6.89477 22.4584 5.9441 26.4811 6.40243C30.5038 6.86076 34.2431 8.69972 37.0619 11.606C39.8807 14.5122 41.6047 18.306 41.9399 22.3408C42.2752 26.3756 41.2011 30.4018 38.9006 33.7335C36.6001 37.0651 33.2156 39.496 29.3237 40.612L28.5781 38.0118C31.8684 37.0683 34.7298 35.0132 36.6747 32.1965C38.6196 29.3798 39.5277 25.9759 39.2442 22.5648C38.9608 19.1536 37.5033 15.9463 35.1202 13.4893C32.7371 11.0322 29.5758 9.4775 26.1749 9.09002C22.774 8.70254 19.3439 9.50626 16.4692 11.3642C13.5944 13.2222 11.4528 16.0195 10.4093 19.2795C9.36578 22.5394 9.48489 26.0604 10.7463 29.2424C12.0078 32.4243 14.3335 35.0705 17.3273 36.73L16.0159 39.0958Z" fill="white"/>
        <path d="M24.5 11.29C27.3919 11.29 30.1944 12.2928 32.4299 14.1274C34.6654 15.962 36.1956 18.515 36.7598 21.3514C37.324 24.1878 36.8873 27.132 35.524 29.6825C34.1608 32.233 31.9554 34.2318 29.2835 35.3385C26.6117 36.4452 23.6389 36.5913 20.8714 35.7518C18.104 34.9123 15.7133 33.1392 14.1066 30.7347C12.5 28.3301 11.7767 25.4428 12.0602 22.5648C12.3437 19.6868 13.6163 16.9961 15.6612 14.9512L17.0274 16.3174C15.2986 18.0463 14.2227 20.321 13.983 22.7542C13.7434 25.1874 14.3548 27.6283 15.7131 29.6612C17.0715 31.6941 19.0927 33.1931 21.4323 33.9029C23.772 34.6126 26.2853 34.4891 28.5442 33.5535C30.803 32.6178 32.6675 30.9279 33.82 28.7717C34.9726 26.6155 35.3418 24.1263 34.8648 21.7283C34.3878 19.3304 33.0941 17.172 31.2042 15.621C29.3142 14.0699 26.9449 13.2222 24.5 13.2222L24.5 11.29Z" fill="white"/>
        <path d="M17.0301 19.7343C17.9685 18.0061 19.477 16.6567 21.2987 15.916C23.1205 15.1754 25.1426 15.0893 27.0207 15.6725C28.8988 16.2556 30.5165 17.4719 31.5983 19.1141C32.6802 20.7563 33.1591 22.7229 32.9535 24.6786C32.748 26.6344 31.8706 28.4583 30.471 29.8397C29.0714 31.2211 27.2361 32.0745 25.2779 32.2545C23.3196 32.4344 21.3595 31.9298 19.7316 30.8266C18.1037 29.7233 16.9086 28.0898 16.3501 26.2043L17.7273 25.7963C18.1915 27.3632 19.1846 28.7207 20.5374 29.6375C21.8902 30.5543 23.5191 30.9737 25.1464 30.8241C26.7738 30.6746 28.2989 29.9654 29.462 28.8175C30.6251 27.6695 31.3542 26.1537 31.525 24.5285C31.6959 22.9032 31.2979 21.269 30.3989 19.9043C29.4999 18.5396 28.1555 17.5288 26.5948 17.0442C25.034 16.5596 23.3536 16.6311 21.8397 17.2466C20.3258 17.8621 19.0722 18.9835 18.2924 20.4196L17.0301 19.7343Z" fill="white"/>
        <path d="M28.2197 26.3227C27.6337 27.1833 26.7675 27.8141 25.7687 28.1076C24.7698 28.4011 23.7001 28.3392 22.7417 27.9324C21.7834 27.5256 20.9958 26.7991 20.513 25.8767C20.0303 24.9543 19.8823 23.893 20.0943 22.8737C20.3063 21.8544 20.8652 20.9402 21.6757 20.2868C22.4862 19.6334 23.4982 19.2812 24.5393 19.2903C25.5803 19.2994 26.586 19.6692 27.385 20.3366C28.184 21.0041 28.7269 21.9279 28.921 22.9508L28.0934 23.1079C27.9356 22.2765 27.4944 21.5256 26.845 20.9831C26.1955 20.4406 25.3781 20.14 24.5319 20.1326C23.6858 20.1253 22.8632 20.4115 22.2044 20.9426C21.5456 21.4737 21.0914 22.2168 20.9191 23.0453C20.7467 23.8737 20.867 24.7363 21.2594 25.4861C21.6517 26.2358 22.2919 26.8263 23.0709 27.157C23.8498 27.4876 24.7193 27.5379 25.5312 27.2994C26.3431 27.0608 27.0471 26.5481 27.5234 25.8486L28.2197 26.3227Z" fill="white"/>
        <path d="M23.7068 21.4192C24.2553 21.2357 24.8504 21.248 25.3909 21.4541C25.9313 21.6602 26.3835 22.0473 26.6705 22.5495C26.9575 23.0516 27.0615 23.6378 26.9648 24.208C26.8681 24.7783 26.5767 25.2973 26.1402 25.6768C25.7037 26.0563 25.1491 26.2726 24.5709 26.289C23.9928 26.3054 23.4268 26.1209 22.9695 25.7668C22.5122 25.4127 22.1918 24.9109 22.0629 24.3471C21.934 23.7832 22.0046 23.1922 22.2627 22.6745L23.1394 23.1117C22.9825 23.4264 22.9395 23.7859 23.0179 24.1288C23.0963 24.4717 23.2911 24.7768 23.5693 24.9921C23.8474 25.2075 24.1916 25.3197 24.5431 25.3098C24.8947 25.2998 25.232 25.1682 25.4975 24.9374C25.7629 24.7067 25.9402 24.391 25.999 24.0442C26.0578 23.6974 25.9945 23.341 25.82 23.0356C25.6454 22.7302 25.3704 22.4948 25.0418 22.3695C24.7131 22.2442 24.3512 22.2367 24.0176 22.3483L23.7068 21.4192Z" fill="white"/>
        <circle cx="24.5" cy="23.79" r="0.5" transform="rotate(-180 24.5 23.79)" fill="white"/>
    </g>

    <path id="telegram" d="M32.1586 0.340967L1.1503 12.5808C-0.0975299 13.1508 -0.519581 14.2923 0.8487 14.9118L8.80368 17.4995L28.0378 5.33177C29.088 4.5679 30.1632 4.77159 29.238 5.6119L12.7185 20.9224L12.1996 27.4017C12.6802 28.4021 13.5603 28.4068 14.1216 27.9095L18.692 23.4829L26.5195 29.4827C28.3375 30.5844 29.3267 29.8734 29.7179 27.8541L34.852 2.96937C35.3851 0.483814 34.476 -0.611346 32.1586 0.340967Z" fill="white"/>

    <path id="github" fill-rule="evenodd" clip-rule="evenodd" d="M16.0001 1C7.52841 1 0.666748 7.86167 0.666748 16.3333C0.666748 23.1183 5.05591 28.8492 11.1509 30.8808C11.9176 31.015 12.2051 30.555 12.2051 30.1525C12.2051 29.7883 12.1859 28.5808 12.1859 27.2967C8.33342 28.0058 7.33675 26.3575 7.03008 25.495C6.85758 25.0542 6.11008 23.6933 5.45842 23.3292C4.92175 23.0417 4.15508 22.3325 5.43925 22.3133C6.64675 22.2942 7.50925 23.425 7.79675 23.885C9.17675 26.2042 11.3809 25.5525 12.2626 25.15C12.3967 24.1533 12.7992 23.4825 13.2401 23.0992C9.82842 22.7158 6.26342 21.3933 6.26342 15.5283C6.26342 13.8608 6.85758 12.4808 7.83508 11.4075C7.68175 11.0242 7.14508 9.4525 7.98841 7.34417C7.98841 7.34417 9.27258 6.94167 12.2051 8.91583C13.4317 8.57083 14.7351 8.39833 16.0384 8.39833C17.3417 8.39833 18.6451 8.57083 19.8717 8.91583C22.8042 6.9225 24.0884 7.34417 24.0884 7.34417C24.9317 9.4525 24.3951 11.0242 24.2417 11.4075C25.2192 12.4808 25.8134 13.8417 25.8134 15.5283C25.8134 21.4125 22.2292 22.7158 18.8176 23.0992C19.3734 23.5783 19.8526 24.4983 19.8526 25.9358C19.8526 27.9867 19.8334 29.635 19.8334 30.1525C19.8334 30.555 20.1209 31.0342 20.8876 30.8808C26.9443 28.8492 31.3334 23.0992 31.3334 16.3333C31.3334 7.86167 24.4717 1 16.0001 1Z" fill="white"/>

    <g id="skill-html5">
        <path d="M6 28L4 3H28L26 28L16 31L6 28Z" fill="#E44D26"/>
        <path d="M26 5H16V29.5L24 27L26 5Z" fill="#F16529"/>
        <path d="M9.5 17.5L8.5 8H24L23.5 11H11.5L12 14.5H23L22 24L16 26L10 24L9.5 19H12.5L13 21.5L16 22.5L19 21.5L19.5 17.5H9.5Z" fill="white"/>
    </g>

    <g id="skill-css3">
        <path d="M6 28L4 3H28L26 28L16 31L6 28Z" fill="#1172B8"/>
        <path d="M26 5H16V29.5L24 27L26 5Z" fill="#33AADD"/>
        <path d="M19.5 17.5H9.5L9 14L17 11.5H9L8.5 8.5H24L23.5 12L17 14.5H23L22 24L16 26L10 24L9.5 19H12.5L13 21.5L16 22.5L19 21.5L19.5 17.5Z" fill="white"/>
    </g>

    <path id="skill-scss" d="M16.171,18.7c-.481.221-1.008.509-2.063,1.088-.4.225-.818.45-1.207.662-.027-.027-.055-.061-.082-.089-2.087-2.23-5.947-3.805-5.783-6.8.061-1.091.436-3.955,7.413-7.433,5.742-2.83,10.311-2.046,11.1-.307C26.683,8.3,23.1,12.913,17.17,13.582a4.469,4.469,0,0,1-3.751-.948c-.314-.341-.361-.361-.477-.293-.191.1-.068.409,0,.586a3.5,3.5,0,0,0,2.141,1.684,11.4,11.4,0,0,0,6.956-.689c3.594-1.391,6.4-5.258,5.578-8.5-.825-3.287-6.281-4.371-11.443-2.537a26,26,0,0,0-8.79,5.047c-2.844,2.66-3.294,4.972-3.11,5.94.662,3.437,5.4,5.674,7.3,7.331-.1.055-.184.1-.259.143-.948.471-4.562,2.36-5.463,4.358-1.023,2.264.164,3.887.948,4.105a5.832,5.832,0,0,0,6.281-2.544,6.3,6.3,0,0,0,.559-5.8,5.03,5.03,0,0,1,.716-.477c.484-.286.945-.568,1.354-.786l0,0a10.475,10.475,0,0,1,4.475-.989c3.246.382,3.887,2.407,3.764,3.26a2.157,2.157,0,0,1-1.03,1.459c-.225.143-.3.191-.28.293.027.15.136.143.327.116a2.535,2.535,0,0,0,1.766-2.257c.1-2-1.807-4.194-5.183-4.174a7.753,7.753,0,0,0-2.946.587q-.225.093-.437.2Zm-4.825,7.839c-1.078,1.173-2.578,1.616-3.226,1.241-.7-.4-.423-2.135.9-3.376a17.18,17.18,0,0,1,2.53-1.889c.157-.1.389-.232.668-.4.048-.027.075-.041.075-.041l.164-.1A4.658,4.658,0,0,1,11.346,26.539Z" style="fill:#cd6799"/>

    <g id="skill-js">
        <path d="M0.254761 0H115.745V120H0.254761V0Z" fill="#F7DF1E"/>
        <path d="M30.6199 100.28L39.4581 94.7229C41.1631 97.8641 42.7142 100.522 46.4346 100.522C50.0009 100.522 52.2493 99.0723 52.2493 93.4342V55.0913H63.1024V93.5936C63.1024 105.274 56.5132 110.59 46.8999 110.59C38.2177 110.59 33.178 105.918 30.6198 100.28" fill="black"/>
        <path d="M68.9998 99.0724L77.8368 93.756C80.1631 97.7035 83.1866 100.603 88.5354 100.603C93.0324 100.603 95.9 98.2669 95.9 95.0448C95.9 91.1783 92.9543 89.8088 87.9926 87.5541L85.2801 86.345C77.4496 82.8819 72.2553 78.5322 72.2553 69.3492C72.2553 60.8913 78.4571 54.4469 88.1481 54.4469C95.0478 54.4469 100.009 56.9442 103.575 63.469L95.1248 69.1073C93.2641 65.6438 91.2491 64.2747 88.1483 64.2747C84.9697 64.2747 82.9539 66.369 82.9539 69.1073C82.9539 72.4905 84.9697 73.8602 89.6207 75.9547L92.3338 77.1629C101.559 81.2713 106.754 85.4595 106.754 94.8836C106.754 105.034 99.0788 110.591 88.7682 110.591C78.6901 110.591 72.1779 105.597 68.9999 99.0724" fill="black"/>
    </g>

    <g id="skill-ts">
        <path d="M0 60V120H60H120V60V0H60H0V60Z" fill="#007ACC"/>
        <path d="M26.5374 60.3979L26.4993 65.3122H34.3088H42.1184L42.1184 87.5026V109.693H47.6422H53.166V87.5026L53.166 65.3122H60.9755H68.785V60.4931C68.785 57.8264 68.7279 55.5979 68.6517 55.5407C68.5946 55.4645 59.0898 55.4264 47.566 55.4455L26.5946 55.5026L26.5374 60.3979Z" fill="white"/>
        <path d="M96.8264 55.3636C99.874 56.1255 102.198 57.4779 104.331 59.6874C105.436 60.8684 107.074 63.0208 107.207 63.535C107.245 63.6874 102.026 67.1922 98.8644 69.1541C98.7502 69.2303 98.293 68.7351 97.7787 67.9731C96.2359 65.7255 94.6168 64.7541 92.1406 64.5827C88.5025 64.335 86.1597 66.2398 86.1787 69.4208C86.1787 70.3541 86.3121 70.9065 86.693 71.6684C87.493 73.3255 88.9787 74.316 93.6454 76.3351C102.236 80.0303 105.912 82.4684 108.198 85.935C110.75 89.8017 111.322 95.9731 109.588 100.564C107.683 105.554 102.96 108.945 96.3121 110.068C94.2549 110.43 89.3787 110.373 87.1692 109.973C82.3502 109.116 77.7787 106.735 74.9597 103.611C73.8549 102.392 71.7025 99.2112 71.8359 98.9827C71.893 98.9065 72.3883 98.6017 72.9406 98.2779C73.474 97.9731 75.493 96.8112 77.3978 95.7065L80.8454 93.7065L81.5692 94.7731C82.5787 96.316 84.7883 98.4303 86.1216 99.135C89.9502 101.154 95.2073 100.868 97.7978 98.5446C98.9025 97.535 99.3597 96.4874 99.3597 94.9446C99.3597 93.5541 99.1883 92.9446 98.4644 91.897C97.5311 90.5636 95.6263 89.4398 90.2168 87.097C84.0263 84.4303 81.3597 82.7731 78.9216 80.1446C77.5121 78.6208 76.1787 76.1827 75.6264 74.1446C75.1692 72.4493 75.0549 68.2017 75.4168 66.4874C76.693 60.5065 81.2073 56.335 87.7216 55.097C89.8359 54.697 94.7502 54.8493 96.8264 55.3636Z" fill="white"/>
    </g>

    <g id="skill-react">
        <path d="M0 59.7974C0 69.273 8.84919 78.1189 22.8007 83.1049C20.0147 97.7701 22.3014 109.59 29.9391 114.196C37.79 118.93 49.4858 115.653 60.5867 105.507C71.4076 115.243 82.3439 119.075 89.9746 114.456C97.8178 109.709 100.203 97.087 97.3404 81.964C111.872 76.9405 120 69.3977 120 59.7974C120 50.5414 111.134 42.5338 97.3711 37.5796C100.453 21.8316 97.8416 10.2984 89.8877 5.50237C82.2193 0.878721 71.156 4.9087 60.176 14.9001C48.7532 4.29502 37.799 1.05714 29.8528 5.86712C22.1918 10.5039 20.0057 22.5388 22.8007 37.4756C9.32028 42.39 0 50.5784 0 59.7974Z" fill="white"/>
        <path d="M94.4565 42.4992C93.351 42.1013 92.2054 41.7248 91.0259 41.3688C91.2198 40.5415 91.3977 39.7249 91.5559 38.9222C94.1528 25.7415 92.4549 15.1231 86.6569 11.627C81.0973 8.27476 72.005 11.77 62.8223 20.1259C61.9393 20.9294 61.0538 21.7801 60.1687 22.6717C59.5789 22.0818 58.9901 21.5118 58.4028 20.9665C48.779 12.0318 39.1327 8.26663 33.3404 11.7728C27.7861 15.1348 26.1413 25.1171 28.4789 37.6085C28.7046 38.8151 28.9685 40.0472 29.2669 41.3C27.9016 41.7052 26.5836 42.1372 25.3226 42.5967C14.0397 46.7099 6.83398 53.1561 6.83398 59.8425C6.83398 66.7483 14.5693 73.675 26.3213 77.875C27.2487 78.2064 28.211 78.5198 29.2028 78.8173C28.8808 80.1722 28.6009 81.4999 28.3658 82.7949C26.1369 95.0696 27.8776 104.816 33.417 108.157C39.1388 111.607 48.7415 108.061 58.0921 99.5143C58.8311 98.8387 59.5729 98.1223 60.3159 97.3714C61.279 98.3411 62.2405 99.2588 63.197 100.12C72.2541 108.269 81.1995 111.56 86.7339 108.21C92.4499 104.75 94.3076 94.2798 91.8958 81.5412C91.7116 80.5683 91.4973 79.5744 91.2566 78.5628C91.9309 78.3544 92.593 78.1392 93.2385 77.9154C105.456 73.6829 113.405 66.8406 113.405 59.8425C113.405 53.1319 105.967 46.6422 94.4565 42.4992Z" fill="#53C1DE"/>
        <path d="M91.8052 73.3972C91.2225 73.599 90.6246 73.7939 90.0153 73.9829C88.6665 69.5184 86.8462 64.771 84.6187 59.8661C86.7444 55.078 88.4943 50.3913 89.8053 45.9557C90.8955 46.2855 91.9536 46.6334 92.9732 47.0006C102.835 50.5504 108.851 55.7988 108.851 59.8429C108.851 64.1505 102.354 69.7425 91.8052 73.3972ZM87.4282 82.466C88.4947 88.0988 88.647 93.1916 87.9406 97.1728C87.3059 100.75 86.0294 103.135 84.4512 104.09C81.0926 106.123 73.9104 103.481 66.1646 96.5115C65.2766 95.7125 64.3822 94.8595 63.485 93.9566C66.4878 90.5226 69.489 86.5305 72.4181 82.0969C77.57 81.6189 82.4374 80.8374 86.8514 79.7705C87.0688 80.6874 87.2619 81.5867 87.4282 82.466ZM43.1649 103.739C39.8836 104.951 37.2702 104.986 35.6904 104.033C32.3288 102.006 30.9313 94.1803 32.8376 83.6831C33.0559 82.4809 33.3158 81.246 33.6153 79.9837C37.9809 80.9931 42.8126 81.7194 47.9769 82.1572C50.9257 86.4956 54.0135 90.4834 57.1253 93.975C56.4454 94.6613 55.7682 95.3147 55.0948 95.9303C50.96 99.7094 46.8165 102.391 43.1649 103.739ZM27.7923 73.3709C22.5958 71.5137 18.3043 69.1001 15.3627 66.4662C12.7195 64.0994 11.385 61.7496 11.385 59.8429C11.385 55.7853 17.1705 50.6099 26.8197 47.0922C27.9905 46.6654 29.2161 46.2631 30.488 45.8853C31.8216 50.421 33.5709 55.1633 35.682 59.9587C33.5436 64.8253 31.7694 69.6431 30.4228 74.2321C29.516 73.9595 28.6375 73.6727 27.7923 73.3709ZM32.9453 36.6947C30.9425 25.9923 32.2726 17.9189 35.6198 15.893C39.1851 13.7348 47.069 16.8119 55.3784 24.5266C55.9095 25.0197 56.4428 25.5358 56.9775 26.0697C53.8811 29.5461 50.8215 33.5039 47.8989 37.8167C42.8868 38.3025 38.0891 39.0828 33.6779 40.1277C33.4006 38.9612 33.1549 37.8152 32.9453 36.6947ZM78.9151 48.5635C77.8606 46.659 76.778 44.7995 75.6744 42.9908C79.0746 43.4402 82.3325 44.0369 85.3919 44.767C84.4734 47.8449 83.3285 51.0631 81.981 54.3622C81.0143 52.4432 79.9918 50.5083 78.9151 48.5635ZM60.1687 29.4717C62.2687 31.8505 64.3716 34.5063 66.44 37.3879C64.3557 37.285 62.2455 37.2314 60.1179 37.2314C58.0104 37.2314 55.9158 37.2838 53.8443 37.3849C55.9148 34.5301 58.036 31.8779 60.1687 29.4717ZM41.3023 48.5965C40.2489 50.5063 39.2454 52.4307 38.2939 54.3586C36.9682 51.071 35.834 47.8382 34.9075 44.7166C37.9481 44.0051 41.1906 43.4234 44.5692 42.9825C43.45 44.8078 42.3585 46.681 41.3023 48.5961V48.5965ZM44.6665 77.0428C41.1758 76.6356 37.8846 76.0838 34.8447 75.392C35.786 72.2147 36.9452 68.9128 38.2991 65.5544C39.253 67.481 40.2605 69.4061 41.3203 71.3202H41.3205C42.4001 73.2701 43.5185 75.1802 44.6665 77.0428ZM60.2947 90.5496C58.1369 88.1153 55.9846 85.4226 53.8826 82.5261C55.9232 82.6098 58.0036 82.6527 60.1179 82.6527C62.2901 82.6527 64.4374 82.6015 66.551 82.5031C64.4758 85.4517 62.3804 88.1486 60.2947 90.5496ZM82.0244 65.3833C83.4488 68.778 84.6496 72.0626 85.603 75.1857C82.513 75.9228 79.1769 76.5164 75.6618 76.9575C76.7682 75.1244 77.8602 73.233 78.9333 71.2874C80.019 69.319 81.0497 67.3477 82.0244 65.3833ZM74.9898 68.9093C73.3239 71.9295 71.6136 74.8126 69.8773 77.5341C66.7149 77.7706 63.4478 77.8923 60.1179 77.8923C56.8015 77.8923 53.5755 77.7846 50.4691 77.5738C48.6628 74.8166 46.9154 71.9249 45.2601 68.9352H45.2605C43.6096 65.9537 42.0901 62.947 40.7133 59.9571C42.0897 56.9603 43.6052 53.9502 45.2466 50.974L45.2462 50.9746C46.892 47.9905 48.6241 45.1129 50.4137 42.3729C53.5831 42.1224 56.8332 41.9917 60.1177 41.9917H60.1179C63.4173 41.9917 66.6715 42.1234 69.8399 42.3761C71.6022 45.096 73.3225 47.9643 74.9748 50.9488C76.6458 53.9669 78.1808 56.9569 79.569 59.8895C78.185 62.8724 76.6534 65.8926 74.9898 68.9093ZM84.3813 15.7513C87.9501 17.9032 89.3379 26.5816 87.0957 37.9617C86.9527 38.6879 86.7916 39.4275 86.6167 40.1771C82.1953 39.1104 77.3941 38.3166 72.3674 37.8235C69.4391 33.4632 66.4046 29.4993 63.3586 26.0675C64.1776 25.2438 64.9953 24.4583 65.8097 23.7171C73.6775 16.5578 81.031 13.7312 84.3813 15.7513Z" fill="white"/>
        <path d="M60.1182 49.8923C65.3739 49.8923 69.6346 54.3472 69.6346 59.8428C69.6346 65.3381 65.3739 69.7932 60.1182 69.7932C54.8625 69.7932 50.6018 65.3381 50.6018 59.8428C50.6018 54.3472 54.8625 49.8923 60.1182 49.8923Z" fill="#53C1DE"/>
    </g>

    <g id="skill-react-native">
        <g clip-path="url(#clip0_1_3299)">
            <path d="M59.9999 63.6073C65.9173 63.6073 70.7142 58.8103 70.7142 52.893C70.7142 46.9757 65.9173 42.1787 59.9999 42.1787C54.0826 42.1787 49.2856 46.9757 49.2856 52.893C49.2856 58.8103 54.0826 63.6073 59.9999 63.6073Z" fill="#F5DE19"/>
            <path d="M60 77.4583C47.122 77.7698 34.2763 76.0339 21.9429 72.3155C16.2455 70.5094 10.9317 67.6643 6.27 63.924C4.49113 62.6463 3.00974 60.9988 1.92747 59.0946C0.845197 57.1905 0.18767 55.0748 0 52.8926C0 45.8083 7.78286 38.8655 20.82 34.3226C33.4831 30.2972 46.714 28.3463 60 28.5455C73.1087 28.3623 86.1623 30.2779 98.6657 34.2197C104.153 35.969 109.286 38.6765 113.829 42.2169C115.577 43.4351 117.036 45.0228 118.103 46.8677C119.169 48.7126 119.817 50.7695 120 52.8926C120 60.2555 111.3 67.7169 97.2857 72.354C85.1911 75.9513 72.6164 77.6728 60 77.4583ZM60 33.6712C47.2891 33.5013 34.6321 35.3559 22.5043 39.1655C10.5043 43.3526 5.12571 49.0783 5.12571 52.8797C5.12571 56.8569 10.9071 63.1097 23.6014 67.4512C35.4003 70.9905 47.6855 72.6381 60 72.3326C72.0703 72.5484 84.1025 70.9152 95.6786 67.4897C108.857 63.1226 114.857 56.8612 114.857 52.8926C114.641 51.5307 114.145 50.2285 113.4 49.0681C112.655 47.9078 111.677 46.9145 110.529 46.1512C106.465 43.0104 101.879 40.6108 96.9814 39.0626C85.0201 35.3073 72.5356 33.4872 60 33.6712Z" fill="#F5DE19"/>
            <path d="M35.6555 106.331C33.6562 106.377 31.6805 105.892 29.9298 104.925C23.7927 101.385 21.6669 91.1767 24.2426 77.6124C27.0826 64.6313 32.0032 52.1951 38.8141 40.7852C45.2029 29.3385 53.382 18.9877 63.0412 10.1252C67.2976 6.24538 72.2078 3.1504 77.5441 0.983791C79.4742 0.0792446 81.5797 -0.389648 83.7112 -0.389648C85.8428 -0.389648 87.9482 0.0792446 89.8784 0.983791C96.2598 4.66093 98.3727 15.9238 95.3941 30.3795C92.4665 42.6562 87.6736 54.4114 81.1827 65.2352C75.0187 76.5468 67.0971 86.8074 57.7141 95.6338C53.3032 99.6657 48.1841 102.846 42.6155 105.015C40.3862 105.843 38.033 106.287 35.6555 106.331ZM43.2541 43.3309C36.7574 54.2566 32.0412 66.1468 29.2827 78.5552C26.9127 91.0481 29.1884 98.5609 32.4969 100.472C35.9255 102.457 44.2484 100.575 54.3541 91.7467C63.3113 83.2907 70.8722 73.4689 76.7555 62.6466C82.9738 52.2989 87.5713 41.0601 90.3884 29.3209C93.1912 15.7138 90.7698 7.38236 87.3326 5.40236C86.0444 4.90876 84.6678 4.6878 83.2898 4.75346C81.9118 4.81911 80.5624 5.16995 79.3269 5.78379C74.577 7.74385 70.2101 10.5265 66.4269 14.0038C57.1984 22.4929 49.3856 32.4021 43.2841 43.3566L43.2541 43.3309Z" fill="#F5DE19"/>
            <path d="M84.326 106.387C78.5188 106.387 71.1431 102.872 63.4631 96.2681C53.6347 87.325 45.3173 76.8512 38.8331 65.2524C32.1077 53.9996 27.226 41.7433 24.3731 28.9481C23.1359 23.3187 22.9066 17.5146 23.696 11.8052C23.8785 9.68726 24.5234 7.63511 25.5853 5.7935C26.6471 3.95188 28.1001 2.36565 29.8417 1.14666C36.2145 -2.54334 47.0274 1.24951 58.0631 11.0467C67.2371 19.7132 75.0276 29.7354 81.1631 40.7638C87.8844 51.7539 92.8173 63.7418 95.7774 76.2795C97.0679 82.1154 97.267 88.1397 96.3645 94.0481C96.1498 96.227 95.4665 98.3337 94.3613 100.224C93.2561 102.114 91.7553 103.742 89.9617 104.998C88.2395 105.953 86.2944 106.432 84.326 106.387ZM43.2688 62.6724C49.4892 73.7571 57.4343 83.7811 66.806 92.3681C76.4445 100.661 84.0903 102.444 87.3774 100.511C90.806 98.5181 93.3345 90.3838 90.7288 77.2224C87.874 65.2521 83.1426 53.8091 76.7103 43.3181C70.8552 32.7629 63.4191 23.1661 54.6603 14.8609C44.2717 5.63808 35.846 3.57666 32.4131 5.56523C31.3432 6.43472 30.4651 7.51661 29.8344 8.7426C29.2037 9.96858 28.8341 11.312 28.7488 12.6881C28.0674 17.7799 28.2894 22.952 29.4045 27.9667C32.1487 40.203 36.8306 51.9221 43.2731 62.6809L43.2688 62.6724Z" fill="#F5DE19"/>
        </g>
        <defs>
            <clipPath id="clip0_1_3299">
                <rect width="120" height="106" fill="white"/>
            </clipPath>
        </defs>
    </g>

    <g id="skill-styled-components">
        <g clip-path="url(#clip0_1_3263)">
            <path d="M68.7672 118.279C68.9472 117.872 69.4014 117.589 69.7314 117.246C74.7665 111.967 79.8444 106.735 84.811 101.391C86.3651 99.9558 87.5661 98.1804 88.3199 96.2036C89.0737 94.2269 89.36 92.1026 89.1562 89.9968C89.0003 89.0951 88.7957 88.2025 88.5434 87.3229C87.1893 88.6084 85.9294 89.7783 84.661 90.9567C82.6898 92.7908 80.7272 94.6334 78.7389 96.4461C77.5664 97.6415 76.0589 98.4531 74.4155 98.7737C72.772 99.0943 71.07 98.9087 69.5342 98.2416C67.9796 97.6705 66.6269 96.6553 65.6442 95.3221C64.6614 93.9889 64.0919 92.3965 64.0063 90.7425C63.9603 90.5297 63.8987 90.3206 63.8221 90.1168C62.3094 91.4024 60.861 92.5851 59.4254 93.8021L29.5875 119.085C29.3818 119.261 29.159 119.479 28.9662 119.65H68.7458L68.6858 119.612C68.4715 119.462 68.5829 118.673 68.7672 118.279Z" fill="#FFCEBF"/>
            <path d="M27.1436 118.279C27.4974 117.818 27.9245 117.418 28.4077 117.096L69.7 82.0642C72.5168 79.6731 75.3207 77.2691 78.1118 74.8522C78.4567 74.6118 78.727 74.2791 78.8918 73.8924C79.5594 70.9831 79.654 67.9717 79.1703 65.0263C78.7418 65.3262 78.5104 65.4548 78.3132 65.6648C74.9322 68.6901 71.5683 71.7412 68.1702 74.7494C67.0445 75.8824 65.5885 76.6292 64.0116 76.8825C62.4346 77.1359 60.818 76.8826 59.3941 76.1592C57.9414 75.4734 56.7256 74.3709 55.9014 72.992C55.0773 71.6131 54.682 70.0201 54.766 68.4159V67.0275C54.1447 67.4817 53.6905 67.7859 53.2662 68.1287C36.7396 81.3615 20.2159 94.5842 3.69496 107.797C2.94933 108.393 2.05801 109.721 1.08098 108.431C0.103957 107.141 1.59092 106.61 2.34083 106.01C19.953 91.8774 37.5738 77.7576 55.2031 63.6507C58.0742 61.3496 58.2628 60.3854 56.3944 56.7301L55.2803 57.7757C52.2249 60.6168 49.1353 63.4193 46.1271 66.3075C44.8931 67.4978 43.3476 68.3148 41.6691 68.6641C39.9906 69.0135 38.2476 68.8809 36.6412 68.2818C35.0348 67.6827 33.6306 66.6415 32.5908 65.2784C31.5509 63.9153 30.9178 62.2858 30.7646 60.5782C30.1947 61.0067 29.7019 61.3196 29.2348 61.6838L3.09503 81.9443C2.64419 82.3864 2.13005 82.7591 1.5695 83.0498C1.14643 83.1777 0.692134 83.155 0.283936 82.9856V119.671H27.0922C26.9925 119.451 26.9453 119.21 26.9542 118.969C26.9631 118.727 27.028 118.491 27.1436 118.279Z" fill="#FFCEBF"/>
            <path d="M99.5654 1.82096C98.8369 4.20782 98.1298 6.59897 97.4913 9.01154C96.9016 10.7164 96.9702 12.5802 97.6837 14.2371C98.3972 15.8941 99.7041 17.2246 101.348 17.9676C106.376 20.6107 112.043 21.798 117.709 21.3958V2.22806C117.646 1.80781 117.669 1.37914 117.777 0.968207C117.897 0.73576 118.049 0.520916 118.227 0.329712H99.5482C99.8353 0.663958 99.7368 1.25103 99.5654 1.82096Z" fill="#FF6196"/>
            <path d="M62.0511 42.9976C61.9623 45.137 61.2139 47.1966 59.9085 48.894C55.242 54.9179 49.8829 60.3719 43.9418 65.1435C42.9837 66.0304 41.7694 66.591 40.473 66.745C39.1766 66.8989 37.8647 66.6383 36.7255 66.0005C35.5917 65.5161 34.6357 64.6925 33.9889 63.6428C33.342 62.5932 33.0361 61.369 33.1131 60.1384C33.2503 58.627 33.8779 57.202 34.9 56.0803C41.5435 49.7455 48.7415 44.019 56.4075 38.9695C56.9096 38.5758 57.5227 38.3499 58.1602 38.3237C58.7977 38.2976 59.4273 38.4725 59.9599 38.8238C60.66 39.2585 61.2259 39.8786 61.5951 40.6153C61.9642 41.352 62.122 42.1766 62.0511 42.9976Z" fill="#FF87AF"/>
            <path d="M56.9127 68.97C56.8132 68.0228 56.9348 67.0654 57.2679 66.1731C57.6011 65.2809 58.1366 64.478 58.8325 63.8277C65.3374 57.8281 72.3164 52.3638 79.7014 47.4883C79.9243 47.3468 80.13 47.2054 80.3742 47.0597C81.0193 46.594 81.8009 46.356 82.596 46.3832C83.3912 46.4103 84.1547 46.7011 84.7665 47.2097C85.3585 47.7112 85.7774 48.3865 85.9635 49.1396C86.1497 49.8928 86.0937 50.6854 85.8036 51.4049C84.8693 54.5168 83.1449 57.3337 80.7984 59.5811C76.033 64.2758 71.1755 68.8762 66.2287 73.3795C65.4838 74.1456 64.5052 74.6422 63.447 74.7911C62.3889 74.9401 61.3112 74.7329 60.3837 74.2022C59.4091 73.6958 58.5792 72.9499 57.9721 72.0347C57.3649 71.1194 57.0004 70.0648 56.9127 68.97Z" fill="#FF87AF"/>
            <path d="M87.8344 71.8015C86.6346 73.0871 85.4004 74.3126 84.2477 75.6282C83.9011 76.1367 83.6136 76.683 83.3907 77.2566C84.0249 77.4451 84.7662 77.9422 85.2804 77.7665C87.8987 76.888 90.4527 75.8339 93.3281 74.724C92.7024 76.1638 92.231 77.4922 91.5668 78.7092C88.8305 83.3078 85.4038 87.4587 81.4066 91.0164C79.8868 92.4819 78.3084 93.8832 76.6715 95.2201C75.8046 95.9395 74.7622 96.4157 73.6509 96.6001C72.5396 96.7844 71.3992 96.6702 70.3465 96.2692C69.2938 95.8681 68.3665 95.1947 67.6595 94.3176C66.9525 93.4406 66.4912 92.3916 66.3227 91.2778C66.254 90.6585 66.3087 90.0317 66.4838 89.4337C66.6589 88.8357 66.9507 88.2784 67.3426 87.7939C73.174 81.4614 79.8384 75.9503 87.1531 71.4115C87.242 71.3771 87.3363 71.3582 87.4316 71.3558L87.8344 71.8015Z" fill="#FF87AF"/>
            <path d="M97.6724 54.7335L105.004 22.1659L110.147 23.37L107.494 31.4305C105.017 38.9296 102.51 46.4287 100.093 53.9364C99.6221 55.3248 99.0051 55.5819 97.6724 54.7335Z" fill="#FF6196"/>
            <path d="M89.3859 73.8885C90.1615 70.9274 90.9328 68.1892 91.5842 65.421C92.219 62.7364 93.4264 60.2207 95.1238 58.0461C96.1651 56.6791 97.3349 57.2234 98.5305 57.519C99.6361 57.789 99.9146 58.5989 99.9618 59.6616C100.136 62.6005 99.2411 65.5031 97.4421 67.8335C95.3003 70.4887 92.5318 72.5695 89.3859 73.8885Z" fill="#FF6196"/>
            <path d="M119.944 3.83936C120.008 2.88498 119.983 1.92674 119.871 0.976845C119.783 0.711516 119.607 0.483621 119.374 0.329779C119.184 0.175101 118.961 0.0652523 118.723 0.00838844C118.585 -0.0173228 118.393 0.124089 118.208 0.325493C118.03 0.516698 117.878 0.731542 117.758 0.96399C117.65 1.37492 117.627 1.80359 117.69 2.22384V21.3873C112.023 21.7895 106.357 20.6022 101.329 17.9591C99.685 17.2161 98.3781 15.8856 97.6646 14.2286C96.951 12.5717 96.8824 10.7079 97.4722 9.00304C98.1107 6.59046 98.8178 4.19932 99.5462 1.81246C99.7177 1.24253 99.8162 0.655454 99.5462 0.321208C99.3961 0.158494 99.1888 0.0602123 98.9677 0.0469556C98.6847 0.0500088 98.4105 0.146413 98.1878 0.321208C97.8674 0.512888 97.6121 0.796593 97.4551 1.1354C96.598 3.70652 95.8438 6.30336 95.1882 8.9259C94.9407 9.95936 94.874 11.0279 94.9911 12.0841C95.1569 13.9952 95.8676 15.8186 97.0389 17.3377C98.2102 18.8569 99.7928 20.0081 101.599 20.6545C102.409 20.993 102.884 21.3273 102.657 22.3943C102.344 23.7484 102.04 25.1026 101.732 26.461C99.632 35.6656 97.5436 44.8745 95.4667 54.0877C95.4082 54.4985 95.2275 54.8822 94.9482 55.189C93.5793 56.2771 92.4291 57.6148 91.5586 59.1314C90.4493 61.1327 89.6817 63.3052 89.2875 65.5592C89.2118 66.2782 88.952 66.9655 88.5331 67.5548C88.1143 68.144 87.5505 68.6153 86.8963 68.9231C85.1094 69.8273 83.4682 70.9971 81.4841 72.2141C81.6164 69.8282 81.5906 67.4361 81.407 65.0535C81.256 64.3206 81.288 63.5618 81.5003 62.8442C81.7126 62.1267 82.0985 61.4725 82.624 60.9397C85.2375 58.3506 87.1005 55.1015 88.0148 51.538C88.2878 50.712 88.3627 49.8333 88.2333 48.9729C88.104 48.1126 87.774 47.2948 87.27 46.5856C86.7661 45.8764 86.1023 45.2957 85.3325 44.8905C84.5626 44.4853 83.7081 44.267 82.8382 44.2531C81.4298 44.2374 80.047 44.6304 78.8573 45.3844C74.7683 48.1767 70.7504 51.0715 66.8073 54.0663C64.4633 55.8318 62.2564 57.7858 59.9852 59.637C59.8873 59.5319 59.8025 59.4154 59.7324 59.2899C59.689 58.9744 59.604 58.6661 59.4796 58.3729C57.5812 55.4418 58.8968 53.3121 60.958 51.1223C63.1053 48.8714 64.2919 45.8727 64.2661 42.7619C64.3327 41.1769 63.8363 39.6194 62.8649 38.3653C62.3474 37.7286 61.7096 37.2001 60.988 36.8097C59.9629 36.2487 58.7908 36.0145 57.6289 36.1386C56.467 36.2627 55.3708 36.7391 54.4873 37.5039L53.2917 38.361C50.5621 40.315 47.7981 42.2177 45.1713 44.3089C41.3364 47.3705 37.5841 50.5341 33.9183 53.7963C32.2042 55.309 30.953 57.3744 29.1746 58.78C19.9014 66.1034 10.5297 73.294 1.1922 80.5317C0.871132 80.7232 0.575909 80.9551 0.313735 81.2216C0.286745 81.2606 0.263774 81.3023 0.245172 81.3459C0.0480521 81.8044 -0.119071 82.5629 0.112331 82.8414C0.169054 82.9019 0.23761 82.95 0.313735 82.9828C0.721934 83.1523 1.17623 83.175 1.5993 83.0471C2.15985 82.7563 2.67399 82.3837 3.12483 81.9415L29.2646 61.6811C29.7317 61.3168 30.2245 60.9869 30.7944 60.5755C30.9476 62.2831 31.5807 63.9125 32.6206 65.2757C33.6604 66.6388 35.0646 67.68 36.671 68.2791C38.2774 68.8782 40.0204 69.0107 41.6989 68.6614C43.3774 68.312 44.9229 67.4951 46.1569 66.3048C49.1565 63.4166 52.2547 60.6141 55.3101 57.773L56.4242 56.7274C58.2926 60.3827 58.104 61.3468 55.2329 63.648C37.5893 77.7663 19.9585 91.8875 2.34064 106.012C1.59073 106.611 0.108046 107.156 1.08079 108.433C2.05353 109.71 2.94914 108.394 3.69476 107.798C20.2242 94.5972 36.7423 81.3787 53.2489 68.1432C53.6774 67.8003 54.1273 67.4961 54.7487 67.0419V68.4303C54.6647 70.0345 55.0599 71.6275 55.8841 73.0064C56.7082 74.3853 57.924 75.4879 59.3767 76.1736C60.8007 76.897 62.4173 77.1503 63.9942 76.897C65.5711 76.6436 67.0271 75.8968 68.1528 74.7638C71.551 71.7642 74.9149 68.7045 78.2959 65.6792C78.5102 65.4863 78.7587 65.3406 79.153 65.0407C79.6367 67.9861 79.542 70.9975 78.8744 73.9068C78.7096 74.2936 78.4394 74.6262 78.0945 74.8667C75.3005 77.2807 72.4966 79.6847 69.6826 82.0787L28.4075 117.115C27.9243 117.437 27.4972 117.836 27.1434 118.297C27.0305 118.507 26.9672 118.741 26.9582 118.979C26.9493 119.217 26.9951 119.455 27.092 119.673C27.2856 119.818 27.5094 119.917 27.7468 119.964C27.9842 120.011 28.2291 120.004 28.4633 119.943C28.648 119.889 28.8181 119.794 28.9603 119.664C29.1746 119.493 29.3889 119.274 29.5817 119.099L59.4196 93.8158C60.8551 92.5988 62.3035 91.399 63.8162 90.1306C63.8928 90.3343 63.9544 90.5434 64.0005 90.7562C64.0861 92.4102 64.6556 94.0027 65.6383 95.3358C66.6211 96.669 67.9737 97.6842 69.5284 98.2553C71.0641 98.9225 72.7662 99.108 74.4096 98.7874C76.053 98.4669 77.5606 97.6552 78.733 96.4598C80.7213 94.6472 82.684 92.8045 84.6552 90.9705C85.9407 89.792 87.1834 88.6093 88.5376 87.3366C88.7898 88.2162 88.9944 89.1089 89.1503 90.0106C89.3473 92.1094 89.0578 94.2253 88.3042 96.1941C87.5506 98.1628 86.3532 99.9313 84.8051 101.362C79.8386 106.71 74.7606 111.942 69.7255 117.217C69.3955 117.56 68.9413 117.843 68.7613 118.25C68.5813 118.657 68.4657 119.454 68.6799 119.626L68.7399 119.664C69.1892 119.883 69.6945 119.959 70.1883 119.883C70.3267 119.854 70.45 119.777 70.5354 119.664C70.6554 119.54 70.7711 119.386 70.8868 119.27C74.9663 115.053 79.0672 110.858 83.1168 106.611C84.7513 104.955 86.288 103.205 87.7191 101.371C89.5851 99.3049 90.8224 96.7492 91.2855 94.0042C91.7486 91.2591 91.4181 88.439 90.3331 85.8754C90.2164 85.3037 90.3304 84.7092 90.6502 84.2213C90.9287 83.7413 91.2372 83.2742 91.5543 82.8114C92.569 81.494 93.4141 80.0544 94.0698 78.5262C95.3368 74.7758 97.2817 71.2898 99.8076 68.2417C100.969 66.7695 101.768 65.0448 102.14 63.207C102.512 61.3692 102.447 59.4696 101.95 57.6616C101.775 56.9741 101.775 56.2535 101.95 55.5661C104.119 48.8512 106.351 42.1577 108.562 35.4599L111.519 26.4867L112.432 23.7142C114.377 23.7142 116.211 23.6756 118.037 23.7142C119.554 23.757 120.017 23.0457 120 21.5715C119.91 15.658 119.944 9.74866 119.944 3.83936ZM43.9371 65.1435C42.9791 66.0304 41.7647 66.591 40.4683 66.745C39.1719 66.8989 37.86 66.6383 36.7208 66.0006C35.587 65.5162 34.631 64.6925 33.9842 63.6429C33.3373 62.5932 33.0314 61.369 33.1084 60.1384C33.2457 58.6271 33.8732 57.202 34.8953 56.0803C41.5388 49.7455 48.7368 44.019 56.4028 38.9695C56.8212 38.6737 57.2972 38.4693 57.7998 38.3696C58.1369 38.3074 58.4825 38.3074 58.8196 38.3696C59.2234 38.4482 59.6086 38.6023 59.9552 38.8238C60.656 39.2588 61.2224 39.8796 61.5916 40.6171C61.9607 41.3547 62.1182 42.1802 62.0464 43.0019C61.9576 45.1413 61.2092 47.2009 59.9038 48.8983C55.237 54.9207 49.878 60.3733 43.9371 65.1435ZM66.2202 73.4097C65.4752 74.1758 64.4966 74.6724 63.4385 74.8213C62.3803 74.9703 61.3027 74.7631 60.3752 74.2324C59.3988 73.7249 58.5678 72.977 57.9605 72.0593C57.3533 71.1416 56.9897 70.0844 56.9042 68.9874C56.8047 68.0401 56.9263 67.0828 57.2594 66.1905C57.5925 65.2982 58.1281 64.4954 58.8239 63.8451C65.3288 57.8454 72.3078 52.3811 79.6929 47.5056C79.9157 47.3642 80.1214 47.2228 80.3657 47.0771C81.0107 46.6114 81.7923 46.3734 82.5875 46.4005C83.3826 46.4277 84.1462 46.7185 84.758 47.2271C85.35 47.7285 85.7688 48.4038 85.955 49.157C86.1412 49.9101 86.0852 50.7028 85.795 51.4223C84.8607 54.5342 83.1364 57.351 80.7899 59.5985C76.0633 64.3208 71.1482 68.8674 66.2288 73.3925L66.2202 73.4097ZM91.5501 78.7276C88.8175 83.319 85.3967 87.4638 81.407 91.0176C79.8872 92.4831 78.3088 93.8844 76.6718 95.2214C75.8049 95.9408 74.7625 96.417 73.6512 96.6013C72.5399 96.7856 71.3996 96.6714 70.3469 96.2704C69.2942 95.8694 68.3669 95.1959 67.6599 94.3189C66.9529 93.4419 66.4915 92.3928 66.323 91.279C66.2543 90.6597 66.3091 90.0329 66.4842 89.435C66.6592 88.837 66.9511 88.2796 67.3429 87.7951C73.1743 81.4627 79.8387 75.9515 87.1534 71.4128C87.2424 71.3783 87.3366 71.3594 87.432 71.3571L87.8605 71.7856C86.6606 73.0712 85.4265 74.2967 84.2738 75.6123C83.9272 76.1208 83.6396 76.6671 83.4167 77.2407C84.0509 77.4292 84.7923 77.9263 85.3065 77.7506C87.3763 77.0564 89.4117 76.2508 91.5929 75.3937L93.3541 74.7081C92.6942 76.1651 92.2228 77.4935 91.5586 78.7105L91.5501 78.7276ZM97.4336 67.8646C95.8352 69.8996 93.8317 71.5806 91.5501 72.8012C90.8444 73.1954 90.1202 73.564 89.3775 73.9068C90.1402 70.9885 90.903 68.2846 91.5501 65.5506L91.5758 65.4392C92.2106 62.7546 93.418 60.2389 95.1153 58.0644C96.1566 56.6974 97.3265 57.2416 98.5221 57.5373C99.6277 57.8073 99.9062 58.6172 99.9533 59.6799C100.129 62.6162 99.2372 65.5171 97.4422 67.8475L97.4336 67.8646ZM107.461 31.4404C104.984 38.9395 102.477 46.4386 100.06 53.9463C99.6062 55.3561 98.9892 55.6132 97.6565 54.7648L104.011 26.5124L104.988 22.1758L110.131 23.3799L109.098 26.5124L107.461 31.4404Z" fill="black"/>
        </g>
        <defs>
            <clipPath id="clip0_1_3263">
                <rect width="120" height="120" fill="white"/>
            </clipPath>
        </defs>
    </g>

    <g id="skill-redux">
        <path d="M21.7868 21.556C22.8939 21.4433 23.7338 20.505 23.6956 19.3789C23.6575 18.253 22.703 17.3522 21.5577 17.3522H21.4814C20.2978 17.3897 19.3817 18.3656 19.4199 19.5291C19.4581 20.0921 19.6871 20.58 20.0307 20.9178C18.7327 23.4326 16.7475 25.2717 13.7698 26.8106C11.7464 27.8615 9.6468 28.2369 7.54715 27.9742C5.82918 27.749 4.49301 26.9984 3.65301 25.7596C2.43144 23.9205 2.31695 21.9312 3.34773 19.942C4.07312 18.5157 5.21828 17.4647 5.94367 16.9392C5.79098 16.4513 5.56187 15.6256 5.44738 15.0251C-0.0882044 18.9661 0.484491 24.2959 2.16426 26.8106C3.42402 28.6873 5.98187 29.8509 8.80691 29.8509C9.57039 29.8509 10.3339 29.7757 11.0975 29.5882C15.9841 28.6498 19.6872 25.7972 21.7868 21.556ZM28.5059 16.9018C25.6045 13.5613 21.3287 11.7222 16.4421 11.7222H15.8314C15.4878 11.0466 14.7624 10.5961 13.9607 10.5961H13.8843C12.7009 10.6337 11.7848 11.6095 11.8229 12.7731C11.8611 13.8991 12.8154 14.7999 13.9607 14.7999H14.037C14.8769 14.7624 15.6023 14.2369 15.9077 13.5237H16.5948C19.4963 13.5237 22.2449 14.3494 24.7265 15.9634C26.6352 17.202 28.0096 18.816 28.7731 20.7677C29.4221 22.3441 29.3839 23.883 28.6967 25.1967C27.6278 27.1859 25.8336 28.2744 23.4666 28.2744C21.9395 28.2744 20.4889 27.824 19.7253 27.4862C19.3054 27.8615 18.5418 28.462 18.0073 28.8375C19.649 29.5881 21.3287 30.001 22.9321 30.001C26.597 30.001 29.3076 28.0116 30.3384 26.0224C31.4454 23.8454 31.369 20.0921 28.5059 16.9018ZM9.1123 22.1939C9.15051 23.3199 10.1049 24.2206 11.2502 24.2206H11.3266C12.51 24.1832 13.4262 23.2073 13.388 22.0438C13.3499 20.9177 12.3954 20.017 11.2502 20.017H11.1739C11.0975 20.017 10.9829 20.017 10.9067 20.0544C9.3414 17.5022 8.69242 14.7248 8.92152 11.7221C9.0741 9.47006 9.83769 7.51828 11.1739 5.9043C12.2809 4.51555 14.4188 3.83996 15.8696 3.80252C19.9162 3.7274 21.634 8.68179 21.7486 10.6711C22.2449 10.7837 23.0848 11.0465 23.6575 11.2342C23.1993 5.15382 19.3817 2.00098 15.7169 2.00098C12.2809 2.00098 9.1123 4.44067 7.85242 8.04387C6.09637 12.8481 7.24164 17.4647 9.37949 21.1055C9.18871 21.3682 9.0741 21.7811 9.1123 22.194V22.1939Z" fill="#764ABC"/>
    </g>

    <g id="skill-git">
        <path d="M2.58536 17.4132C1.80488 16.6327 1.80488 15.3673 2.58536 14.5868L14.5868 2.58536C15.3673 1.80488 16.6327 1.80488 17.4132 2.58536L29.4146 14.5868C30.1951 15.3673 30.1951 16.6327 29.4146 17.4132L17.4132 29.4146C16.6327 30.1951 15.3673 30.1951 14.5868 29.4146L2.58536 17.4132Z" fill="#EE513B"/>
        <path d="M12.1489 5.06152L10.9336 6.27686L14.0725 9.41577C13.9455 9.68819 13.8746 9.99201 13.8746 10.3124C13.8746 11.222 14.4461 11.9981 15.2496 12.3012V19.9798C14.4461 20.2829 13.8746 21.059 13.8746 21.9686C13.8746 23.1422 14.826 24.0936 15.9996 24.0936C17.1732 24.0936 18.1246 23.1422 18.1246 21.9686C18.1246 21.144 17.6549 20.429 16.9684 20.0768V12.3117L19.9689 15.3122C19.8481 15.5791 19.7809 15.8754 19.7809 16.1874C19.7809 17.361 20.7323 18.3124 21.9059 18.3124C23.0795 18.3124 24.0309 17.361 24.0309 16.1874C24.0309 15.0138 23.0795 14.0624 21.9059 14.0624C21.6778 14.0624 21.4582 14.0983 21.2522 14.1648L18.0297 10.9423C18.0914 10.7433 18.1246 10.5317 18.1246 10.3124C18.1246 9.13878 17.1732 8.18738 15.9996 8.18738C15.7803 8.18738 15.5688 8.22061 15.3697 8.2823L12.1489 5.06152Z" fill="white"/>
    </g>

    <g id="skill-vue">
		<path d="M24.4,3.925H30L16,28.075,2,3.925H12.71L16,9.525l3.22-5.6Z" style="fill:#41b883"/>
        <path d="M2,3.925l14,24.15L30,3.925H24.4L16,18.415,7.53,3.925Z" style="fill:#41b883"/>
        <path d="M7.53,3.925,16,18.485l8.4-14.56H19.22L16,9.525l-3.29-5.6Z" style="fill:#35495e"/>
    </g>

    <g id="skill-vuex">
		<path d="M24.4,3.925H30L16,28.075,2,3.925H12.71L16,9.525l3.22-5.6Z" style="fill:#41b883"/>
        <path d="M2,3.925l14,24.15L30,3.925H24.4L16,18.415,7.53,3.925Z" style="fill:#41b883"/>
        <path d="M7.53,3.925,16,18.485l8.4-14.56H19.22L16,9.525l-3.29-5.6Z" style="fill:#35495e"/>
        <path d="M26.684,27.192l.456-.447c2.112.068,2.144-.005,2.237-.219l.58-1.393L30,25l-.047-.115c-.025-.061-.1-.243-1.42-1.483v-.652c1.521-1.445,1.489-1.519,1.4-1.73l-.577-1.407c-.087-.211-.12-.294-2.216-.237l-.457-.465a10,10,0,0,0-.071-2.053l-.059-.132-1.508-.65c-.222-.1-.3-.136-1.724,1.393l-.64-.009c-1.466-1.543-1.535-1.515-1.755-1.428l-1.4.559c-.219.088-.3.119-.212,2.219l-.453.445c-2.11-.068-2.142.006-2.234.219l-.581,1.393L16,21l.048.116c.025.06.1.24,1.419,1.481v.65c-1.521,1.445-1.488,1.519-1.4,1.731l.577,1.409c.089.215.12.292,2.216.238l.456.467a9.967,9.967,0,0,0,.07,2.05l.058.133,1.518.654c.221.091.3.124,1.717-1.4l.64.008c1.468,1.545,1.543,1.515,1.757,1.43l1.4-.558C26.7,29.323,26.773,29.293,26.684,27.192ZM20.671,23.93a2.469,2.469,0,0,1,1.449-3.2,2.525,2.525,0,0,1,3.246,1.429,2.467,2.467,0,0,1-1.405,3.184A2.554,2.554,0,0,1,20.671,23.93Z" style="fill:#99b8c4"/>
	</g>

    <g id="skill-nuxt">
        <path d="M10.648,25.734a1.465,1.465,0,0,1-.157-.942H3.847L13.716,7.417l4.159,7.41,1.308-.976L15.076,6.467A1.752,1.752,0,0,0,13.7,5.56a1.531,1.531,0,0,0-1.343.924l-10,17.593a1.729,1.729,0,0,0-.087,1.656,1.526,1.526,0,0,0,1.456.706H12.1a1.523,1.523,0,0,1-1.456-.7Z" style="fill:#00c58e"/>
        <path d="M29.636,24.112,21.589,9.823a1.692,1.692,0,0,0-1.351-.907,1.489,1.489,0,0,0-1.308.907l-1.064,1.7v3.3l2.371-4.071,7.951,14.071H25.163a1.377,1.377,0,0,1-.122.837l-.026.052a1.729,1.729,0,0,1-1.456.732h4.734a1.72,1.72,0,0,0,1.456-.732,1.548,1.548,0,0,0-.122-1.6Z" style="fill:#108775"/>
        <path d="M25.233,25.7l.026-.052.07-.139a1.278,1.278,0,0,0,.061-.7,2.11,2.11,0,0,0-.27-.724l-6.286-10.9-.95-1.656h-.017l-.959,1.648-6.277,10.9a2.18,2.18,0,0,0-.244.715,1.438,1.438,0,0,0,.148.942,1.563,1.563,0,0,0,1.482.7H23.725a1.79,1.79,0,0,0,1.508-.741ZM17.866,14.836,23.62,24.8H12.112Z" style="fill:#2f495e"/>
    </g>

    <g id="skill-pinia">
        <g>
            <path style="fill:#64C37D;" d="M257.222,173.928c0,0-9.823-127.235,119.043-125.301
                C376.265,48.628,382.964,162.652,257.222,173.928z"/>
            <path style="fill:#64C37D;" d="M251.927,170.733c0,0-127.235,9.823-125.301-119.043C126.628,51.69,240.652,44.991,251.927,170.733z
                "/>
        </g>
        <path style="fill:#458C62;" d="M256.131,172.813c0,0-96.071-83.997-2.68-172.813C253.451,0,338.046,76.749,256.131,172.813z"/>
        <path style="fill:#FFE98F;" d="M255.999,495.766L255.999,495.766c-65.477,0-119.048-53.572-119.048-119.048V258.382
            c0-65.477,53.572-119.048,119.048-119.048l0,0c65.477,0,119.048,53.572,119.048,119.048v118.335
            C375.047,442.194,321.476,495.766,255.999,495.766z"/>
        <g>
            <path style="fill:#FFDA44;" d="M255.999,139.335L255.999,139.335c65.477,0,119.048,53.572,119.048,119.048v118.335
                c0,65.477-53.572,119.048-119.048,119.048l0,0V139.335z"/>
            <path style="fill:#FFDA44;" d="M255.999,123.1c-74.595,0-135.283,60.688-135.283,135.283v118.335
                c0,74.594,60.688,135.282,135.283,135.282s135.283-60.688,135.283-135.282V258.382C391.282,183.788,330.594,123.1,255.999,123.1z
                M356.55,398.192l-36.96-36.96l39.224-39.224v54.709C358.813,384.081,358.028,391.263,356.55,398.192z M153.185,258.382
                c0-5.558,0.449-11.012,1.303-16.334l41.366,41.366l-40.487,40.487l-2.183-2.183L153.185,258.382L153.185,258.382z M218.813,306.373
                l54.858,54.858l-40.487,40.487l-54.858-54.858L218.813,306.373z M241.772,283.415l41.199-41.199l54.858,54.858l-41.199,41.199
                L241.772,283.415z M358.813,258.382v13.757l-52.883-52.883l27.937-27.937C349.404,209.337,358.813,232.78,358.813,258.382z
                M308.972,170.297l-26.001,26.001l-39.917-39.917c4.242-0.535,8.561-0.813,12.945-0.813
                C275.362,155.569,293.491,160.953,308.972,170.297z M208.157,167.402l51.855,51.855l-41.199,41.199l-52.425-52.425
                C176.105,190.806,190.641,176.65,208.157,167.402z M153.185,376.718v-9.083l57.041,57.041l-25.788,25.788
                C165.177,431.768,153.185,405.619,153.185,376.718z M211.451,469.37l21.735-21.735l31.523,31.523
                c-2.872,0.242-5.776,0.372-8.709,0.372C240.049,479.531,224.936,475.881,211.451,469.37z M300.741,469.273l-44.597-44.597
                l40.487-40.487l46.037,46.037l2.671-2.671C335.05,445.565,319.475,460.181,300.741,469.273z"/>
        </g>
        <path style="fill:#F9C82D;" d="M256.047,169.374l-0.109,45.808l4.075,4.075l-3.963,3.963l-0.018,45.936l26.942-26.942l54.858,54.858
            l-41.199,41.199l-40.557-40.557l-0.109,45.807l17.707,17.709l-17.689,17.689l0.039,91.549l8.688,8.688
            c-2.872,0.242-5.776,0.372-8.709,0.372c0,5.828,0,23.594,0,32.469c74.595,0,135.283-60.688,135.283-135.282V258.382
            c0-74.595-60.688-135.283-135.283-135.283c0,11.927,0,23.829,0,32.469c19.363,0,37.492,5.383,52.973,14.728l-26.001,26.001
            L256.047,169.374 M300.741,469.273l-44.597-44.597l40.487-40.487l46.037,46.037l2.671-2.671
            C335.05,445.565,319.475,460.181,300.741,469.273z M358.813,376.718c0,7.363-0.785,14.545-2.263,21.474l-36.96-36.96l39.224-39.224
            V376.718z M358.813,272.14l-52.883-52.883l27.937-27.937c15.537,18.016,24.946,41.461,24.946,67.062V272.14z"/>
    </g>
</svg>
